<svg id="visual" viewBox="0 0 900 600" width="900" height="600" xmlns="http://www.w3.org/2000/svg" xmlns:xlink="http://www.w3.org/1999/xlink" version="1.1"><rect x="0" y="0" width="900" height="600" fill="#001220"></rect><defs><linearGradient id="grad1_0" x1="33.3%" y1="0%" x2="100%" y2="100%"><stop offset="20%" stop-color="#001220" stop-opacity="1"></stop><stop offset="80%" stop-color="#001220" stop-opacity="1"></stop></linearGradient></defs><defs><linearGradient id="grad2_0" x1="0%" y1="0%" x2="66.7%" y2="100%"><stop offset="20%" stop-color="#001220" stop-opacity="1"></stop><stop offset="80%" stop-color="#001220" stop-opacity="1"></stop></linearGradient></defs><g transform="translate(900, 0)"><path d="M0 486.7C-67 483.2 -134 479.6 -186.3 449.7C-238.5 419.8 -276 363.5 -315.4 315.4C-354.8 267.2 -396.1 227.2 -425 176C-453.9 124.8 -470.3 62.4 -486.7 0L0 0Z" fill="#FBAE3C"></path></g><g transform="translate(0, 600)"><path d="M0 -486.7C52.9 -459.1 105.9 -431.4 171.4 -413.9C237 -396.4 315.2 -389.2 344.2 -344.2C373.2 -299.2 353.1 -216.4 368.6 -152.7C384.2 -89 435.5 -44.5 486.7 0L0 0Z" fill="#FBAE3C"></path></g></svg>